<svg xmlns="http://www.w3.org/2000/svg" viewBox="0 0 64 64">
  <defs>
    <linearGradient id="rim" x1="9" y1="8" x2="55" y2="56" gradientUnits="userSpaceOnUse"><stop stop-color="#FFFFFF"/><stop offset=".4" stop-color="#D7DEE9"/><stop offset=".7" stop-color="#7F8B9C"/><stop offset="1" stop-color="#E8EDF4"/></linearGradient>
    <linearGradient id="metal" x1="17" y1="13" x2="47" y2="52" gradientUnits="userSpaceOnUse"><stop stop-color="#F7F9FC"/><stop offset=".48" stop-color="#BFC8D5"/><stop offset="1" stop-color="#778392"/></linearGradient>
    <filter id="shadow" x="-20%" y="-20%" width="140%" height="150%"><feDropShadow dx="0" dy="2" stdDeviation="2.3" flood-color="#111823" flood-opacity=".54"/></filter>
  </defs>
  <path d="M32 4 53 12l7 22-11 20-23 6L7 47 4 24 18 7l14-3Z" fill="#697687" stroke="url(#rim)" stroke-width="2.5" filter="url(#shadow)"/>
  <circle cx="32" cy="32" r="21" fill="url(#metal)" stroke="#F8FAFD" stroke-opacity=".62"/>
  <path d="M24 46c-7-4-10-11-9-20m25 20c7-4 10-11 9-20" fill="none" stroke="#687587" stroke-width="3" stroke-linecap="round"/>
  <path d="m20 39-5 1m7-7-7-1m9-5-6-4m26 16 5 1m-7-7 7-1m-9-5 6-4" stroke="#F7FAFF" stroke-width="2.2" stroke-linecap="round" opacity=".8"/>
  <path d="m32 18 3.5 7.2 8 .9-5.8 5.6 1.5 8-7.2-3.8-7.2 3.8 1.5-8-5.8-5.6 8-.9L32 18Z" fill="#F4F7FB" stroke="#7B8798" stroke-width="1.2"/>
  <path d="M17 17c5-6 11-8 18-8" fill="none" stroke="white" stroke-width="2" stroke-linecap="round" opacity=".7"/>
</svg>
